<svg width="32" height="32" viewBox="0 0 32 32" fill="none" xmlns="http://www.w3.org/2000/svg">
  <defs>
    <linearGradient id="faviconGradient" x1="0%" y1="0%" x2="100%" y2="100%">
      <stop offset="0%" style="stop-color:#0046FF;stop-opacity:1" />
      <stop offset="100%" style="stop-color:#7C3AED;stop-opacity:1" />
    </linearGradient>
  </defs>
  
  <!-- Background -->
  <rect width="32" height="32" rx="6" fill="url(#faviconGradient)"/>
  
  <!-- Briefcase Icon -->
  <path d="M10 14C10 12.3431 11.3431 11 13 11H19C20.6569 11 22 12.3431 22 14V20C22 21.6569 20.6569 23 19 23H13C11.3431 23 10 21.6569 10 20V14Z" fill="white" opacity="0.95"/>
  
  <!-- Handle -->
  <path d="M14 11V9.5C14 8.67157 14.6716 8 15.5 8H16.5C17.3284 8 18 8.67157 18 9.5V11" stroke="white" stroke-width="1.2" stroke-linecap="round" fill="none"/>
  
  <!-- Sparkles -->
  <circle cx="14" cy="17" r="1" fill="white" opacity="0.9"/>
  <circle cx="18" cy="17" r="1" fill="white" opacity="0.9"/>
  <circle cx="16" cy="19" r="0.7" fill="white" opacity="0.7"/>
  
  <!-- Arrow -->
  <path d="M16 20L16 24M16 24L13.5 22M16 24L18.5 22" stroke="white" stroke-width="1.5" stroke-linecap="round" stroke-linejoin="round" opacity="0.9"/>
</svg>










